# xmcd
#
# Track frame offsets:
#	150
#	13762
#	25682
#	34637
#	45765
#	52447
#	64625
#	79305
#	93452
#	106172
#	110435
#	125067
#	141515
#	143677
#	153120
#	162025
#	171610
#	173907
#	182122
#	189350
#	198865
#	208350
#	213472
#	215612
#	221485
#	229320
#	238405
#	240882
#	250967
#
# Disc length: 3533 seconds
#
# Revision: 0
# Processed by: cddbd v1.5.2PL0 Copyright (c) Steve Scherf et al.
# Submitted via: EZCDAudioConverter 1.0.8.1
#
DISCID=a90dcb1d
DTITLE=Varios - Nanas del Mundo
DYEAR=1997
DGENRE=Folklore
TTITLE0=Nana popular flamenca
TTITLE1=Canço de bressol_nana catalana
TTITLE2=Din dan, nor hil da_nana vasca
TTITLE3=Duerme duerme angelico_nana sefardi
TTITLE4=Canción de cuna de Brahms
TTITLE5=Toutouic_nana francesa
TTITLE6=Le grand Lustukru_nana francesa
TTITLE7=Le p'tit quinquin_nana francesa
TTITLE8=Le petite poule grise_nana francesa
TTITLE9=El perdon de Ploërmel de Meyerbeer_nana francesa
TTITLE10=A mol iz geven a mayse_nana judeoalemana
TTITLE11=Vig Lid_nana judeoalemana
TTITLE12=El claro de luna_nana judeoalemana
TTITLE13=Kazatchia Kolybelnaïa_nana rusa
TTITLE14=Kolybelnaïa v bouriu_nana rusa
TTITLE15=Khodila mladiochenka po borotchkou_nana rusa
TTITLE16=Nana de Mozart_nana rusa
TTITLE17=Lul ha lay-cournouailles_nana celta islas britanicas
TTITLE18=Cadul gu lo-Isla de Man_nana celta islas britanicas
TTITLE19=Suo Gan-Pais de Gales_nana celta islas britanicas
TTITLE20=O can ye sew cushions-Escocia_nana celta islas britanicas
TTITLE21=Campanas del monasterio de Lefébure-Vély_nana celta islas britanicas
TTITLE22=Who dat?_nana negra
TTITLE23=Put on the skillet_nana negra
TTITLE24=Little boy_nana negra
TTITLE25=Go to sleep_nana negra
TTITLE26=Cancion de cuna de Schubert_nana negra
TTITLE27=Ti Gason_nana criolla Haiti
TTITLE28=Berceuse_nana criolla Haiti
EXTD=
EXTT0=
EXTT1=
EXTT2=
EXTT3=
EXTT4=
EXTT5=
EXTT6=
EXTT7=
EXTT8=
EXTT9=
EXTT10=
EXTT11=
EXTT12=
EXTT13=
EXTT14=
EXTT15=
EXTT16=
EXTT17=
EXTT18=
EXTT19=
EXTT20=
EXTT21=
EXTT22=
EXTT23=
EXTT24=
EXTT25=
EXTT26=
EXTT27=
EXTT28=
PLAYORDER=
